<?xml version="1.0" encoding="utf-8" standalone="no"?>
<!DOCTYPE svg PUBLIC "-//W3C//DTD SVG 1.1//EN"
  "http://www.w3.org/Graphics/SVG/1.1/DTD/svg11.dtd">
<svg xmlns:xlink="http://www.w3.org/1999/xlink" width="1812.223594pt" height="644.568244pt" viewBox="0 0 1812.223594 644.568244" xmlns="http://www.w3.org/2000/svg" version="1.1">
 <metadata>
  <rdf:RDF xmlns:dc="http://purl.org/dc/elements/1.1/" xmlns:cc="http://creativecommons.org/ns#" xmlns:rdf="http://www.w3.org/1999/02/22-rdf-syntax-ns#">
   <cc:Work>
    <dc:type rdf:resource="http://purl.org/dc/dcmitype/StillImage"/>
    <dc:date>2023-08-02T13:54:02.262295</dc:date>
    <dc:format>image/svg+xml</dc:format>
    <dc:creator>
     <cc:Agent>
      <dc:title>Matplotlib v3.7.1, https://matplotlib.org/</dc:title>
     </cc:Agent>
    </dc:creator>
   </cc:Work>
  </rdf:RDF>
 </metadata>
 <defs>
  <style type="text/css">*{stroke-linejoin: round; stroke-linecap: butt}</style>
 </defs>
 <g id="figure_1">
  <g id="patch_1">
   <path d="M 0 644.568244 
L 1812.223594 644.568244 
L 1812.223594 0 
L 0 0 
z
" style="fill: #ffffff"/>
  </g>
  <g id="axes_1">
   <g id="patch_2">
    <path d="M 131.023594 500.3128 
L 1805.023594 500.3128 
L 1805.023594 56.7928 
L 131.023594 56.7928 
z
" style="fill: #ffffff"/>
   </g>
   <g id="matplotlib.axis_1">
    <g id="xtick_1">
     <g id="line2d_1">
      <path d="M 230.407638 500.3128 
L 230.407638 56.7928 
" clip-path="url(#pd299d8dade)" style="fill: none; stroke-dasharray: 0.8,1.32; stroke-dashoffset: 0; stroke: #b0b0b0; stroke-width: 0.8"/>
     </g>
     <g id="line2d_2">
      <defs>
       <path id="m22e45ab58c" d="M 0 0 
L 0 3.5 
" style="stroke: #000000; stroke-width: 0.8"/>
      </defs>
      <g>
       <use xlink:href="#m22e45ab58c" x="230.407638" y="500.3128" style="stroke: #000000; stroke-width: 0.8"/>
      </g>
     </g>
     <g id="text_1">
      <!-- 2mm -->
      <g transform="translate(160.144075 565.819745) rotate(-30) scale(0.3 -0.3)">
       <defs>
        <path id="DejaVuSans-32" d="M 1228 531 
L 3431 531 
L 3431 0 
L 469 0 
L 469 531 
Q 828 903 1448 1529 
Q 2069 2156 2228 2338 
Q 2531 2678 2651 2914 
Q 2772 3150 2772 3378 
Q 2772 3750 2511 3984 
Q 2250 4219 1831 4219 
Q 1534 4219 1204 4116 
Q 875 4013 500 3803 
L 500 4441 
Q 881 4594 1212 4672 
Q 1544 4750 1819 4750 
Q 2544 4750 2975 4387 
Q 3406 4025 3406 3419 
Q 3406 3131 3298 2873 
Q 3191 2616 2906 2266 
Q 2828 2175 2409 1742 
Q 1991 1309 1228 531 
z
" transform="scale(0.015625)"/>
        <path id="DejaVuSans-6d" d="M 3328 2828 
Q 3544 3216 3844 3400 
Q 4144 3584 4550 3584 
Q 5097 3584 5394 3201 
Q 5691 2819 5691 2113 
L 5691 0 
L 5113 0 
L 5113 2094 
Q 5113 2597 4934 2840 
Q 4756 3084 4391 3084 
Q 3944 3084 3684 2787 
Q 3425 2491 3425 1978 
L 3425 0 
L 2847 0 
L 2847 2094 
Q 2847 2600 2669 2842 
Q 2491 3084 2119 3084 
Q 1678 3084 1418 2786 
Q 1159 2488 1159 1978 
L 1159 0 
L 581 0 
L 581 3500 
L 1159 3500 
L 1159 2956 
Q 1356 3278 1631 3431 
Q 1906 3584 2284 3584 
Q 2666 3584 2933 3390 
Q 3200 3197 3328 2828 
z
" transform="scale(0.015625)"/>
       </defs>
       <use xlink:href="#DejaVuSans-32"/>
       <use xlink:href="#DejaVuSans-6d" x="63.623047"/>
       <use xlink:href="#DejaVuSans-6d" x="161.035156"/>
      </g>
     </g>
    </g>
    <g id="xtick_2">
     <g id="line2d_3">
      <path d="M 308.051423 500.3128 
L 308.051423 56.7928 
" clip-path="url(#pd299d8dade)" style="fill: none; stroke-dasharray: 0.8,1.32; stroke-dashoffset: 0; stroke: #b0b0b0; stroke-width: 0.8"/>
     </g>
     <g id="line2d_4">
      <g>
       <use xlink:href="#m22e45ab58c" x="308.051423" y="500.3128" style="stroke: #000000; stroke-width: 0.8"/>
      </g>
     </g>
     <g id="text_2">
      <!-- 3mm -->
      <g transform="translate(237.78786 565.819745) rotate(-30) scale(0.3 -0.3)">
       <defs>
        <path id="DejaVuSans-33" d="M 2597 2516 
Q 3050 2419 3304 2112 
Q 3559 1806 3559 1356 
Q 3559 666 3084 287 
Q 2609 -91 1734 -91 
Q 1441 -91 1130 -33 
Q 819 25 488 141 
L 488 750 
Q 750 597 1062 519 
Q 1375 441 1716 441 
Q 2309 441 2620 675 
Q 2931 909 2931 1356 
Q 2931 1769 2642 2001 
Q 2353 2234 1838 2234 
L 1294 2234 
L 1294 2753 
L 1863 2753 
Q 2328 2753 2575 2939 
Q 2822 3125 2822 3475 
Q 2822 3834 2567 4026 
Q 2313 4219 1838 4219 
Q 1578 4219 1281 4162 
Q 984 4106 628 3988 
L 628 4550 
Q 988 4650 1302 4700 
Q 1616 4750 1894 4750 
Q 2613 4750 3031 4423 
Q 3450 4097 3450 3541 
Q 3450 3153 3228 2886 
Q 3006 2619 2597 2516 
z
" transform="scale(0.015625)"/>
       </defs>
       <use xlink:href="#DejaVuSans-33"/>
       <use xlink:href="#DejaVuSans-6d" x="63.623047"/>
       <use xlink:href="#DejaVuSans-6d" x="161.035156"/>
      </g>
     </g>
    </g>
    <g id="xtick_3">
     <g id="line2d_5">
      <path d="M 385.695208 500.3128 
L 385.695208 56.7928 
" clip-path="url(#pd299d8dade)" style="fill: none; stroke-dasharray: 0.8,1.32; stroke-dashoffset: 0; stroke: #b0b0b0; stroke-width: 0.8"/>
     </g>
     <g id="line2d_6">
      <g>
       <use xlink:href="#m22e45ab58c" x="385.695208" y="500.3128" style="stroke: #000000; stroke-width: 0.8"/>
      </g>
     </g>
     <g id="text_3">
      <!-- adi -->
      <g transform="translate(342.942836 549.936151) rotate(-30) scale(0.3 -0.3)">
       <defs>
        <path id="DejaVuSans-61" d="M 2194 1759 
Q 1497 1759 1228 1600 
Q 959 1441 959 1056 
Q 959 750 1161 570 
Q 1363 391 1709 391 
Q 2188 391 2477 730 
Q 2766 1069 2766 1631 
L 2766 1759 
L 2194 1759 
z
M 3341 1997 
L 3341 0 
L 2766 0 
L 2766 531 
Q 2569 213 2275 61 
Q 1981 -91 1556 -91 
Q 1019 -91 701 211 
Q 384 513 384 1019 
Q 384 1609 779 1909 
Q 1175 2209 1959 2209 
L 2766 2209 
L 2766 2266 
Q 2766 2663 2505 2880 
Q 2244 3097 1772 3097 
Q 1472 3097 1187 3025 
Q 903 2953 641 2809 
L 641 3341 
Q 956 3463 1253 3523 
Q 1550 3584 1831 3584 
Q 2591 3584 2966 3190 
Q 3341 2797 3341 1997 
z
" transform="scale(0.015625)"/>
        <path id="DejaVuSans-64" d="M 2906 2969 
L 2906 4863 
L 3481 4863 
L 3481 0 
L 2906 0 
L 2906 525 
Q 2725 213 2448 61 
Q 2172 -91 1784 -91 
Q 1150 -91 751 415 
Q 353 922 353 1747 
Q 353 2572 751 3078 
Q 1150 3584 1784 3584 
Q 2172 3584 2448 3432 
Q 2725 3281 2906 2969 
z
M 947 1747 
Q 947 1113 1208 752 
Q 1469 391 1925 391 
Q 2381 391 2643 752 
Q 2906 1113 2906 1747 
Q 2906 2381 2643 2742 
Q 2381 3103 1925 3103 
Q 1469 3103 1208 2742 
Q 947 2381 947 1747 
z
" transform="scale(0.015625)"/>
        <path id="DejaVuSans-69" d="M 603 3500 
L 1178 3500 
L 1178 0 
L 603 0 
L 603 3500 
z
M 603 4863 
L 1178 4863 
L 1178 4134 
L 603 4134 
L 603 4863 
z
" transform="scale(0.015625)"/>
       </defs>
       <use xlink:href="#DejaVuSans-61"/>
       <use xlink:href="#DejaVuSans-64" x="61.279297"/>
       <use xlink:href="#DejaVuSans-69" x="124.755859"/>
      </g>
     </g>
    </g>
    <g id="xtick_4">
     <g id="line2d_7">
      <path d="M 463.338993 500.3128 
L 463.338993 56.7928 
" clip-path="url(#pd299d8dade)" style="fill: none; stroke-dasharray: 0.8,1.32; stroke-dashoffset: 0; stroke: #b0b0b0; stroke-width: 0.8"/>
     </g>
     <g id="line2d_8">
      <g>
       <use xlink:href="#m22e45ab58c" x="463.338993" y="500.3128" style="stroke: #000000; stroke-width: 0.8"/>
      </g>
     </g>
     <g id="text_4">
      <!-- atax -->
      <g transform="translate(402.814156 560.197088) rotate(-30) scale(0.3 -0.3)">
       <defs>
        <path id="DejaVuSans-74" d="M 1172 4494 
L 1172 3500 
L 2356 3500 
L 2356 3053 
L 1172 3053 
L 1172 1153 
Q 1172 725 1289 603 
Q 1406 481 1766 481 
L 2356 481 
L 2356 0 
L 1766 0 
Q 1100 0 847 248 
Q 594 497 594 1153 
L 594 3053 
L 172 3053 
L 172 3500 
L 594 3500 
L 594 4494 
L 1172 4494 
z
" transform="scale(0.015625)"/>
        <path id="DejaVuSans-78" d="M 3513 3500 
L 2247 1797 
L 3578 0 
L 2900 0 
L 1881 1375 
L 863 0 
L 184 0 
L 1544 1831 
L 300 3500 
L 978 3500 
L 1906 2253 
L 2834 3500 
L 3513 3500 
z
" transform="scale(0.015625)"/>
       </defs>
       <use xlink:href="#DejaVuSans-61"/>
       <use xlink:href="#DejaVuSans-74" x="61.279297"/>
       <use xlink:href="#DejaVuSans-61" x="100.488281"/>
       <use xlink:href="#DejaVuSans-78" x="161.767578"/>
      </g>
     </g>
    </g>
    <g id="xtick_5">
     <g id="line2d_9">
      <path d="M 540.982777 500.3128 
L 540.982777 56.7928 
" clip-path="url(#pd299d8dade)" style="fill: none; stroke-dasharray: 0.8,1.32; stroke-dashoffset: 0; stroke: #b0b0b0; stroke-width: 0.8"/>
     </g>
     <g id="line2d_10">
      <g>
       <use xlink:href="#m22e45ab58c" x="540.982777" y="500.3128" style="stroke: #000000; stroke-width: 0.8"/>
      </g>
     </g>
     <g id="text_5">
      <!-- bicg -->
      <g transform="translate(483.372657 558.514276) rotate(-30) scale(0.3 -0.3)">
       <defs>
        <path id="DejaVuSans-62" d="M 3116 1747 
Q 3116 2381 2855 2742 
Q 2594 3103 2138 3103 
Q 1681 3103 1420 2742 
Q 1159 2381 1159 1747 
Q 1159 1113 1420 752 
Q 1681 391 2138 391 
Q 2594 391 2855 752 
Q 3116 1113 3116 1747 
z
M 1159 2969 
Q 1341 3281 1617 3432 
Q 1894 3584 2278 3584 
Q 2916 3584 3314 3078 
Q 3713 2572 3713 1747 
Q 3713 922 3314 415 
Q 2916 -91 2278 -91 
Q 1894 -91 1617 61 
Q 1341 213 1159 525 
L 1159 0 
L 581 0 
L 581 4863 
L 1159 4863 
L 1159 2969 
z
" transform="scale(0.015625)"/>
        <path id="DejaVuSans-63" d="M 3122 3366 
L 3122 2828 
Q 2878 2963 2633 3030 
Q 2388 3097 2138 3097 
Q 1578 3097 1268 2742 
Q 959 2388 959 1747 
Q 959 1106 1268 751 
Q 1578 397 2138 397 
Q 2388 397 2633 464 
Q 2878 531 3122 666 
L 3122 134 
Q 2881 22 2623 -34 
Q 2366 -91 2075 -91 
Q 1284 -91 818 406 
Q 353 903 353 1747 
Q 353 2603 823 3093 
Q 1294 3584 2113 3584 
Q 2378 3584 2631 3529 
Q 2884 3475 3122 3366 
z
" transform="scale(0.015625)"/>
        <path id="DejaVuSans-67" d="M 2906 1791 
Q 2906 2416 2648 2759 
Q 2391 3103 1925 3103 
Q 1463 3103 1205 2759 
Q 947 2416 947 1791 
Q 947 1169 1205 825 
Q 1463 481 1925 481 
Q 2391 481 2648 825 
Q 2906 1169 2906 1791 
z
M 3481 434 
Q 3481 -459 3084 -895 
Q 2688 -1331 1869 -1331 
Q 1566 -1331 1297 -1286 
Q 1028 -1241 775 -1147 
L 775 -588 
Q 1028 -725 1275 -790 
Q 1522 -856 1778 -856 
Q 2344 -856 2625 -561 
Q 2906 -266 2906 331 
L 2906 616 
Q 2728 306 2450 153 
Q 2172 0 1784 0 
Q 1141 0 747 490 
Q 353 981 353 1791 
Q 353 2603 747 3093 
Q 1141 3584 1784 3584 
Q 2172 3584 2450 3431 
Q 2728 3278 2906 2969 
L 2906 3500 
L 3481 3500 
L 3481 434 
z
" transform="scale(0.015625)"/>
       </defs>
       <use xlink:href="#DejaVuSans-62"/>
       <use xlink:href="#DejaVuSans-69" x="63.476562"/>
       <use xlink:href="#DejaVuSans-63" x="91.259766"/>
       <use xlink:href="#DejaVuSans-67" x="146.240234"/>
      </g>
     </g>
    </g>
    <g id="xtick_6">
     <g id="line2d_11">
      <path d="M 618.626562 500.3128 
L 618.626562 56.7928 
" clip-path="url(#pd299d8dade)" style="fill: none; stroke-dasharray: 0.8,1.32; stroke-dashoffset: 0; stroke: #b0b0b0; stroke-width: 0.8"/>
     </g>
     <g id="line2d_12">
      <g>
       <use xlink:href="#m22e45ab58c" x="618.626562" y="500.3128" style="stroke: #000000; stroke-width: 0.8"/>
      </g>
     </g>
     <g id="text_6">
      <!-- cholesky -->
      <g transform="translate(502.640917 592.217401) rotate(-30) scale(0.3 -0.3)">
       <defs>
        <path id="DejaVuSans-68" d="M 3513 2113 
L 3513 0 
L 2938 0 
L 2938 2094 
Q 2938 2591 2744 2837 
Q 2550 3084 2163 3084 
Q 1697 3084 1428 2787 
Q 1159 2491 1159 1978 
L 1159 0 
L 581 0 
L 581 4863 
L 1159 4863 
L 1159 2956 
Q 1366 3272 1645 3428 
Q 1925 3584 2291 3584 
Q 2894 3584 3203 3211 
Q 3513 2838 3513 2113 
z
" transform="scale(0.015625)"/>
        <path id="DejaVuSans-6f" d="M 1959 3097 
Q 1497 3097 1228 2736 
Q 959 2375 959 1747 
Q 959 1119 1226 758 
Q 1494 397 1959 397 
Q 2419 397 2687 759 
Q 2956 1122 2956 1747 
Q 2956 2369 2687 2733 
Q 2419 3097 1959 3097 
z
M 1959 3584 
Q 2709 3584 3137 3096 
Q 3566 2609 3566 1747 
Q 3566 888 3137 398 
Q 2709 -91 1959 -91 
Q 1206 -91 779 398 
Q 353 888 353 1747 
Q 353 2609 779 3096 
Q 1206 3584 1959 3584 
z
" transform="scale(0.015625)"/>
        <path id="DejaVuSans-6c" d="M 603 4863 
L 1178 4863 
L 1178 0 
L 603 0 
L 603 4863 
z
" transform="scale(0.015625)"/>
        <path id="DejaVuSans-65" d="M 3597 1894 
L 3597 1613 
L 953 1613 
Q 991 1019 1311 708 
Q 1631 397 2203 397 
Q 2534 397 2845 478 
Q 3156 559 3463 722 
L 3463 178 
Q 3153 47 2828 -22 
Q 2503 -91 2169 -91 
Q 1331 -91 842 396 
Q 353 884 353 1716 
Q 353 2575 817 3079 
Q 1281 3584 2069 3584 
Q 2775 3584 3186 3129 
Q 3597 2675 3597 1894 
z
M 3022 2063 
Q 3016 2534 2758 2815 
Q 2500 3097 2075 3097 
Q 1594 3097 1305 2825 
Q 1016 2553 972 2059 
L 3022 2063 
z
" transform="scale(0.015625)"/>
        <path id="DejaVuSans-73" d="M 2834 3397 
L 2834 2853 
Q 2591 2978 2328 3040 
Q 2066 3103 1784 3103 
Q 1356 3103 1142 2972 
Q 928 2841 928 2578 
Q 928 2378 1081 2264 
Q 1234 2150 1697 2047 
L 1894 2003 
Q 2506 1872 2764 1633 
Q 3022 1394 3022 966 
Q 3022 478 2636 193 
Q 2250 -91 1575 -91 
Q 1294 -91 989 -36 
Q 684 19 347 128 
L 347 722 
Q 666 556 975 473 
Q 1284 391 1588 391 
Q 1994 391 2212 530 
Q 2431 669 2431 922 
Q 2431 1156 2273 1281 
Q 2116 1406 1581 1522 
L 1381 1569 
Q 847 1681 609 1914 
Q 372 2147 372 2553 
Q 372 3047 722 3315 
Q 1072 3584 1716 3584 
Q 2034 3584 2315 3537 
Q 2597 3491 2834 3397 
z
" transform="scale(0.015625)"/>
        <path id="DejaVuSans-6b" d="M 581 4863 
L 1159 4863 
L 1159 1991 
L 2875 3500 
L 3609 3500 
L 1753 1863 
L 3688 0 
L 2938 0 
L 1159 1709 
L 1159 0 
L 581 0 
L 581 4863 
z
" transform="scale(0.015625)"/>
        <path id="DejaVuSans-79" d="M 2059 -325 
Q 1816 -950 1584 -1140 
Q 1353 -1331 966 -1331 
L 506 -1331 
L 506 -850 
L 844 -850 
Q 1081 -850 1212 -737 
Q 1344 -625 1503 -206 
L 1606 56 
L 191 3500 
L 800 3500 
L 1894 763 
L 2988 3500 
L 3597 3500 
L 2059 -325 
z
" transform="scale(0.015625)"/>
       </defs>
       <use xlink:href="#DejaVuSans-63"/>
       <use xlink:href="#DejaVuSans-68" x="54.980469"/>
       <use xlink:href="#DejaVuSans-6f" x="118.359375"/>
       <use xlink:href="#DejaVuSans-6c" x="179.541016"/>
       <use xlink:href="#DejaVuSans-65" x="207.324219"/>
       <use xlink:href="#DejaVuSans-73" x="268.847656"/>
       <use xlink:href="#DejaVuSans-6b" x="320.947266"/>
       <use xlink:href="#DejaVuSans-79" x="375.232422"/>
      </g>
     </g>
    </g>
    <g id="xtick_7">
     <g id="line2d_13">
      <path d="M 696.270347 500.3128 
L 696.270347 56.7928 
" clip-path="url(#pd299d8dade)" style="fill: none; stroke-dasharray: 0.8,1.32; stroke-dashoffset: 0; stroke: #b0b0b0; stroke-width: 0.8"/>
     </g>
     <g id="line2d_14">
      <g>
       <use xlink:href="#m22e45ab58c" x="696.270347" y="500.3128" style="stroke: #000000; stroke-width: 0.8"/>
      </g>
     </g>
     <g id="text_7">
      <!-- correlation -->
      <g transform="translate(553.755908 607.533807) rotate(-30) scale(0.3 -0.3)">
       <defs>
        <path id="DejaVuSans-72" d="M 2631 2963 
Q 2534 3019 2420 3045 
Q 2306 3072 2169 3072 
Q 1681 3072 1420 2755 
Q 1159 2438 1159 1844 
L 1159 0 
L 581 0 
L 581 3500 
L 1159 3500 
L 1159 2956 
Q 1341 3275 1631 3429 
Q 1922 3584 2338 3584 
Q 2397 3584 2469 3576 
Q 2541 3569 2628 3553 
L 2631 2963 
z
" transform="scale(0.015625)"/>
        <path id="DejaVuSans-6e" d="M 3513 2113 
L 3513 0 
L 2938 0 
L 2938 2094 
Q 2938 2591 2744 2837 
Q 2550 3084 2163 3084 
Q 1697 3084 1428 2787 
Q 1159 2491 1159 1978 
L 1159 0 
L 581 0 
L 581 3500 
L 1159 3500 
L 1159 2956 
Q 1366 3272 1645 3428 
Q 1925 3584 2291 3584 
Q 2894 3584 3203 3211 
Q 3513 2838 3513 2113 
z
" transform="scale(0.015625)"/>
       </defs>
       <use xlink:href="#DejaVuSans-63"/>
       <use xlink:href="#DejaVuSans-6f" x="54.980469"/>
       <use xlink:href="#DejaVuSans-72" x="116.162109"/>
       <use xlink:href="#DejaVuSans-72" x="155.525391"/>
       <use xlink:href="#DejaVuSans-65" x="194.388672"/>
       <use xlink:href="#DejaVuSans-6c" x="255.912109"/>
       <use xlink:href="#DejaVuSans-61" x="283.695312"/>
       <use xlink:href="#DejaVuSans-74" x="344.974609"/>
       <use xlink:href="#DejaVuSans-69" x="384.183594"/>
       <use xlink:href="#DejaVuSans-6f" x="411.966797"/>
       <use xlink:href="#DejaVuSans-6e" x="473.148438"/>
      </g>
     </g>
    </g>
    <g id="xtick_8">
     <g id="line2d_15">
      <path d="M 773.914132 500.3128 
L 773.914132 56.7928 
" clip-path="url(#pd299d8dade)" style="fill: none; stroke-dasharray: 0.8,1.32; stroke-dashoffset: 0; stroke: #b0b0b0; stroke-width: 0.8"/>
     </g>
     <g id="line2d_16">
      <g>
       <use xlink:href="#m22e45ab58c" x="773.914132" y="500.3128" style="stroke: #000000; stroke-width: 0.8"/>
      </g>
     </g>
     <g id="text_8">
      <!-- covariance -->
      <g transform="translate(628.756962 609.059588) rotate(-30) scale(0.3 -0.3)">
       <defs>
        <path id="DejaVuSans-76" d="M 191 3500 
L 800 3500 
L 1894 563 
L 2988 3500 
L 3597 3500 
L 2284 0 
L 1503 0 
L 191 3500 
z
" transform="scale(0.015625)"/>
       </defs>
       <use xlink:href="#DejaVuSans-63"/>
       <use xlink:href="#DejaVuSans-6f" x="54.980469"/>
       <use xlink:href="#DejaVuSans-76" x="116.162109"/>
       <use xlink:href="#DejaVuSans-61" x="175.341797"/>
       <use xlink:href="#DejaVuSans-72" x="236.621094"/>
       <use xlink:href="#DejaVuSans-69" x="277.734375"/>
       <use xlink:href="#DejaVuSans-61" x="305.517578"/>
       <use xlink:href="#DejaVuSans-6e" x="366.796875"/>
       <use xlink:href="#DejaVuSans-63" x="430.175781"/>
       <use xlink:href="#DejaVuSans-65" x="485.15625"/>
      </g>
     </g>
    </g>
    <g id="xtick_9">
     <g id="line2d_17">
      <path d="M 851.557917 500.3128 
L 851.557917 56.7928 
" clip-path="url(#pd299d8dade)" style="fill: none; stroke-dasharray: 0.8,1.32; stroke-dashoffset: 0; stroke: #b0b0b0; stroke-width: 0.8"/>
     </g>
     <g id="line2d_18">
      <g>
       <use xlink:href="#m22e45ab58c" x="851.557917" y="500.3128" style="stroke: #000000; stroke-width: 0.8"/>
      </g>
     </g>
     <g id="text_9">
      <!-- deriche -->
      <g transform="translate(751.323108 583.123651) rotate(-30) scale(0.3 -0.3)">
       <use xlink:href="#DejaVuSans-64"/>
       <use xlink:href="#DejaVuSans-65" x="63.476562"/>
       <use xlink:href="#DejaVuSans-72" x="125"/>
       <use xlink:href="#DejaVuSans-69" x="166.113281"/>
       <use xlink:href="#DejaVuSans-63" x="193.896484"/>
       <use xlink:href="#DejaVuSans-68" x="248.876953"/>
       <use xlink:href="#DejaVuSans-65" x="312.255859"/>
      </g>
     </g>
    </g>
    <g id="xtick_10">
     <g id="line2d_19">
      <path d="M 929.201701 500.3128 
L 929.201701 56.7928 
" clip-path="url(#pd299d8dade)" style="fill: none; stroke-dasharray: 0.8,1.32; stroke-dashoffset: 0; stroke: #b0b0b0; stroke-width: 0.8"/>
     </g>
     <g id="line2d_20">
      <g>
       <use xlink:href="#m22e45ab58c" x="929.201701" y="500.3128" style="stroke: #000000; stroke-width: 0.8"/>
      </g>
     </g>
     <g id="text_10">
      <!-- doitgen -->
      <g transform="translate(827.343096 584.061151) rotate(-30) scale(0.3 -0.3)">
       <use xlink:href="#DejaVuSans-64"/>
       <use xlink:href="#DejaVuSans-6f" x="63.476562"/>
       <use xlink:href="#DejaVuSans-69" x="124.658203"/>
       <use xlink:href="#DejaVuSans-74" x="152.441406"/>
       <use xlink:href="#DejaVuSans-67" x="191.650391"/>
       <use xlink:href="#DejaVuSans-65" x="255.126953"/>
       <use xlink:href="#DejaVuSans-6e" x="316.650391"/>
      </g>
     </g>
    </g>
    <g id="xtick_11">
     <g id="line2d_21">
      <path d="M 1006.845486 500.3128 
L 1006.845486 56.7928 
" clip-path="url(#pd299d8dade)" style="fill: none; stroke-dasharray: 0.8,1.32; stroke-dashoffset: 0; stroke: #b0b0b0; stroke-width: 0.8"/>
     </g>
     <g id="line2d_22">
      <g>
       <use xlink:href="#m22e45ab58c" x="1006.845486" y="500.3128" style="stroke: #000000; stroke-width: 0.8"/>
      </g>
     </g>
     <g id="text_11">
      <!-- durbin -->
      <g transform="translate(919.909581 575.445526) rotate(-30) scale(0.3 -0.3)">
       <defs>
        <path id="DejaVuSans-75" d="M 544 1381 
L 544 3500 
L 1119 3500 
L 1119 1403 
Q 1119 906 1312 657 
Q 1506 409 1894 409 
Q 2359 409 2629 706 
Q 2900 1003 2900 1516 
L 2900 3500 
L 3475 3500 
L 3475 0 
L 2900 0 
L 2900 538 
Q 2691 219 2414 64 
Q 2138 -91 1772 -91 
Q 1169 -91 856 284 
Q 544 659 544 1381 
z
M 1991 3584 
L 1991 3584 
z
" transform="scale(0.015625)"/>
       </defs>
       <use xlink:href="#DejaVuSans-64"/>
       <use xlink:href="#DejaVuSans-75" x="63.476562"/>
       <use xlink:href="#DejaVuSans-72" x="126.855469"/>
       <use xlink:href="#DejaVuSans-62" x="167.96875"/>
       <use xlink:href="#DejaVuSans-69" x="231.445312"/>
       <use xlink:href="#DejaVuSans-6e" x="259.228516"/>
      </g>
     </g>
    </g>
    <g id="xtick_12">
     <g id="line2d_23">
      <path d="M 1084.489271 500.3128 
L 1084.489271 56.7928 
" clip-path="url(#pd299d8dade)" style="fill: none; stroke-dasharray: 0.8,1.32; stroke-dashoffset: 0; stroke: #b0b0b0; stroke-width: 0.8"/>
     </g>
     <g id="line2d_24">
      <g>
       <use xlink:href="#m22e45ab58c" x="1084.489271" y="500.3128" style="stroke: #000000; stroke-width: 0.8"/>
      </g>
     </g>
     <g id="text_12">
      <!-- fdtd-2d -->
      <g transform="translate(986.653624 581.738495) rotate(-30) scale(0.3 -0.3)">
       <defs>
        <path id="DejaVuSans-66" d="M 2375 4863 
L 2375 4384 
L 1825 4384 
Q 1516 4384 1395 4259 
Q 1275 4134 1275 3809 
L 1275 3500 
L 2222 3500 
L 2222 3053 
L 1275 3053 
L 1275 0 
L 697 0 
L 697 3053 
L 147 3053 
L 147 3500 
L 697 3500 
L 697 3744 
Q 697 4328 969 4595 
Q 1241 4863 1831 4863 
L 2375 4863 
z
" transform="scale(0.015625)"/>
        <path id="DejaVuSans-2d" d="M 313 2009 
L 1997 2009 
L 1997 1497 
L 313 1497 
L 313 2009 
z
" transform="scale(0.015625)"/>
       </defs>
       <use xlink:href="#DejaVuSans-66"/>
       <use xlink:href="#DejaVuSans-64" x="35.205078"/>
       <use xlink:href="#DejaVuSans-74" x="98.681641"/>
       <use xlink:href="#DejaVuSans-64" x="137.890625"/>
       <use xlink:href="#DejaVuSans-2d" x="201.367188"/>
       <use xlink:href="#DejaVuSans-32" x="237.451172"/>
       <use xlink:href="#DejaVuSans-64" x="301.074219"/>
      </g>
     </g>
    </g>
    <g id="xtick_13">
     <g id="line2d_25">
      <path d="M 1162.133056 500.3128 
L 1162.133056 56.7928 
" clip-path="url(#pd299d8dade)" style="fill: none; stroke-dasharray: 0.8,1.32; stroke-dashoffset: 0; stroke: #b0b0b0; stroke-width: 0.8"/>
     </g>
     <g id="line2d_26">
      <g>
       <use xlink:href="#m22e45ab58c" x="1162.133056" y="500.3128" style="stroke: #000000; stroke-width: 0.8"/>
      </g>
     </g>
     <g id="text_13">
      <!-- floyd-warshall -->
      <g transform="translate(977.30245 631.965057) rotate(-30) scale(0.3 -0.3)">
       <defs>
        <path id="DejaVuSans-77" d="M 269 3500 
L 844 3500 
L 1563 769 
L 2278 3500 
L 2956 3500 
L 3675 769 
L 4391 3500 
L 4966 3500 
L 4050 0 
L 3372 0 
L 2619 2869 
L 1863 0 
L 1184 0 
L 269 3500 
z
" transform="scale(0.015625)"/>
       </defs>
       <use xlink:href="#DejaVuSans-66"/>
       <use xlink:href="#DejaVuSans-6c" x="35.205078"/>
       <use xlink:href="#DejaVuSans-6f" x="62.988281"/>
       <use xlink:href="#DejaVuSans-79" x="124.169922"/>
       <use xlink:href="#DejaVuSans-64" x="183.349609"/>
       <use xlink:href="#DejaVuSans-2d" x="246.826172"/>
       <use xlink:href="#DejaVuSans-77" x="282.910156"/>
       <use xlink:href="#DejaVuSans-61" x="364.697266"/>
       <use xlink:href="#DejaVuSans-72" x="425.976562"/>
       <use xlink:href="#DejaVuSans-73" x="467.089844"/>
       <use xlink:href="#DejaVuSans-68" x="519.189453"/>
       <use xlink:href="#DejaVuSans-61" x="582.568359"/>
       <use xlink:href="#DejaVuSans-6c" x="643.847656"/>
       <use xlink:href="#DejaVuSans-6c" x="671.630859"/>
      </g>
     </g>
    </g>
    <g id="xtick_14">
     <g id="line2d_27">
      <path d="M 1239.776841 500.3128 
L 1239.776841 56.7928 
" clip-path="url(#pd299d8dade)" style="fill: none; stroke-dasharray: 0.8,1.32; stroke-dashoffset: 0; stroke: #b0b0b0; stroke-width: 0.8"/>
     </g>
     <g id="line2d_28">
      <g>
       <use xlink:href="#m22e45ab58c" x="1239.776841" y="500.3128" style="stroke: #000000; stroke-width: 0.8"/>
      </g>
     </g>
     <g id="text_14">
      <!-- gemm -->
      <g transform="translate(1153.563525 575.028338) rotate(-30) scale(0.3 -0.3)">
       <use xlink:href="#DejaVuSans-67"/>
       <use xlink:href="#DejaVuSans-65" x="63.476562"/>
       <use xlink:href="#DejaVuSans-6d" x="125"/>
       <use xlink:href="#DejaVuSans-6d" x="222.412109"/>
      </g>
     </g>
    </g>
    <g id="xtick_15">
     <g id="line2d_29">
      <path d="M 1317.420625 500.3128 
L 1317.420625 56.7928 
" clip-path="url(#pd299d8dade)" style="fill: none; stroke-dasharray: 0.8,1.32; stroke-dashoffset: 0; stroke: #b0b0b0; stroke-width: 0.8"/>
     </g>
     <g id="line2d_30">
      <g>
       <use xlink:href="#m22e45ab58c" x="1317.420625" y="500.3128" style="stroke: #000000; stroke-width: 0.8"/>
      </g>
     </g>
     <g id="text_15">
      <!-- gemver -->
      <g transform="translate(1214.470016 584.69162) rotate(-30) scale(0.3 -0.3)">
       <use xlink:href="#DejaVuSans-67"/>
       <use xlink:href="#DejaVuSans-65" x="63.476562"/>
       <use xlink:href="#DejaVuSans-6d" x="125"/>
       <use xlink:href="#DejaVuSans-76" x="222.412109"/>
       <use xlink:href="#DejaVuSans-65" x="281.591797"/>
       <use xlink:href="#DejaVuSans-72" x="343.115234"/>
      </g>
     </g>
    </g>
    <g id="xtick_16">
     <g id="line2d_31">
      <path d="M 1395.06441 500.3128 
L 1395.06441 56.7928 
" clip-path="url(#pd299d8dade)" style="fill: none; stroke-dasharray: 0.8,1.32; stroke-dashoffset: 0; stroke: #b0b0b0; stroke-width: 0.8"/>
     </g>
     <g id="line2d_32">
      <g>
       <use xlink:href="#m22e45ab58c" x="1395.06441" y="500.3128" style="stroke: #000000; stroke-width: 0.8"/>
      </g>
     </g>
     <g id="text_16">
      <!-- gesummv -->
      <g transform="translate(1263.47407 601.226776) rotate(-30) scale(0.3 -0.3)">
       <use xlink:href="#DejaVuSans-67"/>
       <use xlink:href="#DejaVuSans-65" x="63.476562"/>
       <use xlink:href="#DejaVuSans-73" x="125"/>
       <use xlink:href="#DejaVuSans-75" x="177.099609"/>
       <use xlink:href="#DejaVuSans-6d" x="240.478516"/>
       <use xlink:href="#DejaVuSans-6d" x="337.890625"/>
       <use xlink:href="#DejaVuSans-76" x="435.302734"/>
      </g>
     </g>
    </g>
    <g id="xtick_17">
     <g id="line2d_33">
      <path d="M 1472.708195 500.3128 
L 1472.708195 56.7928 
" clip-path="url(#pd299d8dade)" style="fill: none; stroke-dasharray: 0.8,1.32; stroke-dashoffset: 0; stroke: #b0b0b0; stroke-width: 0.8"/>
     </g>
     <g id="line2d_34">
      <g>
       <use xlink:href="#m22e45ab58c" x="1472.708195" y="500.3128" style="stroke: #000000; stroke-width: 0.8"/>
      </g>
     </g>
     <g id="text_17">
      <!-- gramschmidt -->
      <g transform="translate(1297.697506 626.295526) rotate(-30) scale(0.3 -0.3)">
       <use xlink:href="#DejaVuSans-67"/>
       <use xlink:href="#DejaVuSans-72" x="63.476562"/>
       <use xlink:href="#DejaVuSans-61" x="104.589844"/>
       <use xlink:href="#DejaVuSans-6d" x="165.869141"/>
       <use xlink:href="#DejaVuSans-73" x="263.28125"/>
       <use xlink:href="#DejaVuSans-63" x="315.380859"/>
       <use xlink:href="#DejaVuSans-68" x="370.361328"/>
       <use xlink:href="#DejaVuSans-6d" x="433.740234"/>
       <use xlink:href="#DejaVuSans-69" x="531.152344"/>
       <use xlink:href="#DejaVuSans-64" x="558.935547"/>
       <use xlink:href="#DejaVuSans-74" x="622.412109"/>
      </g>
     </g>
    </g>
    <g id="xtick_18">
     <g id="line2d_35">
      <path d="M 1550.35198 500.3128 
L 1550.35198 56.7928 
" clip-path="url(#pd299d8dade)" style="fill: none; stroke-dasharray: 0.8,1.32; stroke-dashoffset: 0; stroke: #b0b0b0; stroke-width: 0.8"/>
     </g>
     <g id="line2d_36">
      <g>
       <use xlink:href="#m22e45ab58c" x="1550.35198" y="500.3128" style="stroke: #000000; stroke-width: 0.8"/>
      </g>
     </g>
     <g id="text_18">
      <!-- heat-3d -->
      <g transform="translate(1446.27689 585.340838) rotate(-30) scale(0.3 -0.3)">
       <use xlink:href="#DejaVuSans-68"/>
       <use xlink:href="#DejaVuSans-65" x="63.378906"/>
       <use xlink:href="#DejaVuSans-61" x="124.902344"/>
       <use xlink:href="#DejaVuSans-74" x="186.181641"/>
       <use xlink:href="#DejaVuSans-2d" x="225.390625"/>
       <use xlink:href="#DejaVuSans-33" x="261.474609"/>
       <use xlink:href="#DejaVuSans-64" x="325.097656"/>
      </g>
     </g>
    </g>
    <g id="xtick_19">
     <g id="line2d_37">
      <path d="M 1627.995764 500.3128 
L 1627.995764 56.7928 
" clip-path="url(#pd299d8dade)" style="fill: none; stroke-dasharray: 0.8,1.32; stroke-dashoffset: 0; stroke: #b0b0b0; stroke-width: 0.8"/>
     </g>
     <g id="line2d_38">
      <g>
       <use xlink:href="#m22e45ab58c" x="1627.995764" y="500.3128" style="stroke: #000000; stroke-width: 0.8"/>
      </g>
     </g>
     <g id="text_19">
      <!-- jacobi-1d -->
      <g transform="translate(1505.445917 596.007245) rotate(-30) scale(0.3 -0.3)">
       <defs>
        <path id="DejaVuSans-6a" d="M 603 3500 
L 1178 3500 
L 1178 -63 
Q 1178 -731 923 -1031 
Q 669 -1331 103 -1331 
L -116 -1331 
L -116 -844 
L 38 -844 
Q 366 -844 484 -692 
Q 603 -541 603 -63 
L 603 3500 
z
M 603 4863 
L 1178 4863 
L 1178 4134 
L 603 4134 
L 603 4863 
z
" transform="scale(0.015625)"/>
        <path id="DejaVuSans-31" d="M 794 531 
L 1825 531 
L 1825 4091 
L 703 3866 
L 703 4441 
L 1819 4666 
L 2450 4666 
L 2450 531 
L 3481 531 
L 3481 0 
L 794 0 
L 794 531 
z
" transform="scale(0.015625)"/>
       </defs>
       <use xlink:href="#DejaVuSans-6a"/>
       <use xlink:href="#DejaVuSans-61" x="27.783203"/>
       <use xlink:href="#DejaVuSans-63" x="89.0625"/>
       <use xlink:href="#DejaVuSans-6f" x="144.042969"/>
       <use xlink:href="#DejaVuSans-62" x="205.224609"/>
       <use xlink:href="#DejaVuSans-69" x="268.701172"/>
       <use xlink:href="#DejaVuSans-2d" x="296.484375"/>
       <use xlink:href="#DejaVuSans-31" x="332.568359"/>
       <use xlink:href="#DejaVuSans-64" x="396.191406"/>
      </g>
     </g>
    </g>
    <g id="xtick_20">
     <g id="line2d_39">
      <path d="M 1705.639549 500.3128 
L 1705.639549 56.7928 
" clip-path="url(#pd299d8dade)" style="fill: none; stroke-dasharray: 0.8,1.32; stroke-dashoffset: 0; stroke: #b0b0b0; stroke-width: 0.8"/>
     </g>
     <g id="line2d_40">
      <g>
       <use xlink:href="#m22e45ab58c" x="1705.639549" y="500.3128" style="stroke: #000000; stroke-width: 0.8"/>
      </g>
     </g>
     <g id="text_20">
      <!-- jacobi-2d -->
      <g transform="translate(1583.089702 596.007245) rotate(-30) scale(0.3 -0.3)">
       <use xlink:href="#DejaVuSans-6a"/>
       <use xlink:href="#DejaVuSans-61" x="27.783203"/>
       <use xlink:href="#DejaVuSans-63" x="89.0625"/>
       <use xlink:href="#DejaVuSans-6f" x="144.042969"/>
       <use xlink:href="#DejaVuSans-62" x="205.224609"/>
       <use xlink:href="#DejaVuSans-69" x="268.701172"/>
       <use xlink:href="#DejaVuSans-2d" x="296.484375"/>
       <use xlink:href="#DejaVuSans-32" x="332.568359"/>
       <use xlink:href="#DejaVuSans-64" x="396.191406"/>
      </g>
     </g>
    </g>
   </g>
   <g id="matplotlib.axis_2">
    <g id="ytick_1">
     <g id="line2d_41">
      <path d="M 131.023594 500.3128 
L 1805.023594 500.3128 
" clip-path="url(#pd299d8dade)" style="fill: none; stroke-dasharray: 0.8,1.32; stroke-dashoffset: 0; stroke: #b0b0b0; stroke-width: 0.8"/>
     </g>
     <g id="line2d_42">
      <defs>
       <path id="mce0f734fd6" d="M 0 0 
L -3.5 0 
" style="stroke: #000000; stroke-width: 0.8"/>
      </defs>
      <g>
       <use xlink:href="#mce0f734fd6" x="131.023594" y="500.3128" style="stroke: #000000; stroke-width: 0.8"/>
      </g>
     </g>
     <g id="text_21">
      <!-- 0.0 -->
      <g transform="translate(84.265781 509.810847) scale(0.25 -0.25)">
       <defs>
        <path id="DejaVuSans-30" d="M 2034 4250 
Q 1547 4250 1301 3770 
Q 1056 3291 1056 2328 
Q 1056 1369 1301 889 
Q 1547 409 2034 409 
Q 2525 409 2770 889 
Q 3016 1369 3016 2328 
Q 3016 3291 2770 3770 
Q 2525 4250 2034 4250 
z
M 2034 4750 
Q 2819 4750 3233 4129 
Q 3647 3509 3647 2328 
Q 3647 1150 3233 529 
Q 2819 -91 2034 -91 
Q 1250 -91 836 529 
Q 422 1150 422 2328 
Q 422 3509 836 4129 
Q 1250 4750 2034 4750 
z
" transform="scale(0.015625)"/>
        <path id="DejaVuSans-2e" d="M 684 794 
L 1344 794 
L 1344 0 
L 684 0 
L 684 794 
z
" transform="scale(0.015625)"/>
       </defs>
       <use xlink:href="#DejaVuSans-30"/>
       <use xlink:href="#DejaVuSans-2e" x="63.623047"/>
       <use xlink:href="#DejaVuSans-30" x="95.410156"/>
      </g>
     </g>
    </g>
    <g id="ytick_2">
     <g id="line2d_43">
      <path d="M 131.023594 411.6088 
L 1805.023594 411.6088 
" clip-path="url(#pd299d8dade)" style="fill: none; stroke-dasharray: 0.8,1.32; stroke-dashoffset: 0; stroke: #b0b0b0; stroke-width: 0.8"/>
     </g>
     <g id="line2d_44">
      <g>
       <use xlink:href="#mce0f734fd6" x="131.023594" y="411.6088" style="stroke: #000000; stroke-width: 0.8"/>
      </g>
     </g>
     <g id="text_22">
      <!-- 0.2 -->
      <g transform="translate(84.265781 421.106847) scale(0.25 -0.25)">
       <use xlink:href="#DejaVuSans-30"/>
       <use xlink:href="#DejaVuSans-2e" x="63.623047"/>
       <use xlink:href="#DejaVuSans-32" x="95.410156"/>
      </g>
     </g>
    </g>
    <g id="ytick_3">
     <g id="line2d_45">
      <path d="M 131.023594 322.9048 
L 1805.023594 322.9048 
" clip-path="url(#pd299d8dade)" style="fill: none; stroke-dasharray: 0.8,1.32; stroke-dashoffset: 0; stroke: #b0b0b0; stroke-width: 0.8"/>
     </g>
     <g id="line2d_46">
      <g>
       <use xlink:href="#mce0f734fd6" x="131.023594" y="322.9048" style="stroke: #000000; stroke-width: 0.8"/>
      </g>
     </g>
     <g id="text_23">
      <!-- 0.4 -->
      <g transform="translate(84.265781 332.402847) scale(0.25 -0.25)">
       <defs>
        <path id="DejaVuSans-34" d="M 2419 4116 
L 825 1625 
L 2419 1625 
L 2419 4116 
z
M 2253 4666 
L 3047 4666 
L 3047 1625 
L 3713 1625 
L 3713 1100 
L 3047 1100 
L 3047 0 
L 2419 0 
L 2419 1100 
L 313 1100 
L 313 1709 
L 2253 4666 
z
" transform="scale(0.015625)"/>
       </defs>
       <use xlink:href="#DejaVuSans-30"/>
       <use xlink:href="#DejaVuSans-2e" x="63.623047"/>
       <use xlink:href="#DejaVuSans-34" x="95.410156"/>
      </g>
     </g>
    </g>
    <g id="ytick_4">
     <g id="line2d_47">
      <path d="M 131.023594 234.2008 
L 1805.023594 234.2008 
" clip-path="url(#pd299d8dade)" style="fill: none; stroke-dasharray: 0.8,1.32; stroke-dashoffset: 0; stroke: #b0b0b0; stroke-width: 0.8"/>
     </g>
     <g id="line2d_48">
      <g>
       <use xlink:href="#mce0f734fd6" x="131.023594" y="234.2008" style="stroke: #000000; stroke-width: 0.8"/>
      </g>
     </g>
     <g id="text_24">
      <!-- 0.6 -->
      <g transform="translate(84.265781 243.698847) scale(0.25 -0.25)">
       <defs>
        <path id="DejaVuSans-36" d="M 2113 2584 
Q 1688 2584 1439 2293 
Q 1191 2003 1191 1497 
Q 1191 994 1439 701 
Q 1688 409 2113 409 
Q 2538 409 2786 701 
Q 3034 994 3034 1497 
Q 3034 2003 2786 2293 
Q 2538 2584 2113 2584 
z
M 3366 4563 
L 3366 3988 
Q 3128 4100 2886 4159 
Q 2644 4219 2406 4219 
Q 1781 4219 1451 3797 
Q 1122 3375 1075 2522 
Q 1259 2794 1537 2939 
Q 1816 3084 2150 3084 
Q 2853 3084 3261 2657 
Q 3669 2231 3669 1497 
Q 3669 778 3244 343 
Q 2819 -91 2113 -91 
Q 1303 -91 875 529 
Q 447 1150 447 2328 
Q 447 3434 972 4092 
Q 1497 4750 2381 4750 
Q 2619 4750 2861 4703 
Q 3103 4656 3366 4563 
z
" transform="scale(0.015625)"/>
       </defs>
       <use xlink:href="#DejaVuSans-30"/>
       <use xlink:href="#DejaVuSans-2e" x="63.623047"/>
       <use xlink:href="#DejaVuSans-36" x="95.410156"/>
      </g>
     </g>
    </g>
    <g id="ytick_5">
     <g id="line2d_49">
      <path d="M 131.023594 145.4968 
L 1805.023594 145.4968 
" clip-path="url(#pd299d8dade)" style="fill: none; stroke-dasharray: 0.8,1.32; stroke-dashoffset: 0; stroke: #b0b0b0; stroke-width: 0.8"/>
     </g>
     <g id="line2d_50">
      <g>
       <use xlink:href="#mce0f734fd6" x="131.023594" y="145.4968" style="stroke: #000000; stroke-width: 0.8"/>
      </g>
     </g>
     <g id="text_25">
      <!-- 0.8 -->
      <g transform="translate(84.265781 154.994847) scale(0.25 -0.25)">
       <defs>
        <path id="DejaVuSans-38" d="M 2034 2216 
Q 1584 2216 1326 1975 
Q 1069 1734 1069 1313 
Q 1069 891 1326 650 
Q 1584 409 2034 409 
Q 2484 409 2743 651 
Q 3003 894 3003 1313 
Q 3003 1734 2745 1975 
Q 2488 2216 2034 2216 
z
M 1403 2484 
Q 997 2584 770 2862 
Q 544 3141 544 3541 
Q 544 4100 942 4425 
Q 1341 4750 2034 4750 
Q 2731 4750 3128 4425 
Q 3525 4100 3525 3541 
Q 3525 3141 3298 2862 
Q 3072 2584 2669 2484 
Q 3125 2378 3379 2068 
Q 3634 1759 3634 1313 
Q 3634 634 3220 271 
Q 2806 -91 2034 -91 
Q 1263 -91 848 271 
Q 434 634 434 1313 
Q 434 1759 690 2068 
Q 947 2378 1403 2484 
z
M 1172 3481 
Q 1172 3119 1398 2916 
Q 1625 2713 2034 2713 
Q 2441 2713 2670 2916 
Q 2900 3119 2900 3481 
Q 2900 3844 2670 4047 
Q 2441 4250 2034 4250 
Q 1625 4250 1398 4047 
Q 1172 3844 1172 3481 
z
" transform="scale(0.015625)"/>
       </defs>
       <use xlink:href="#DejaVuSans-30"/>
       <use xlink:href="#DejaVuSans-2e" x="63.623047"/>
       <use xlink:href="#DejaVuSans-38" x="95.410156"/>
      </g>
     </g>
    </g>
    <g id="ytick_6">
     <g id="line2d_51">
      <path d="M 131.023594 56.7928 
L 1805.023594 56.7928 
" clip-path="url(#pd299d8dade)" style="fill: none; stroke-dasharray: 0.8,1.32; stroke-dashoffset: 0; stroke: #b0b0b0; stroke-width: 0.8"/>
     </g>
     <g id="line2d_52">
      <g>
       <use xlink:href="#mce0f734fd6" x="131.023594" y="56.7928" style="stroke: #000000; stroke-width: 0.8"/>
      </g>
     </g>
     <g id="text_26">
      <!-- 1.0 -->
      <g transform="translate(84.265781 66.290847) scale(0.25 -0.25)">
       <use xlink:href="#DejaVuSans-31"/>
       <use xlink:href="#DejaVuSans-2e" x="63.623047"/>
       <use xlink:href="#DejaVuSans-30" x="95.410156"/>
      </g>
     </g>
    </g>
    <g id="text_27">
     <!-- Relative execution time -->
     <g transform="translate(33.794531 485.061003) rotate(-90) scale(0.35 -0.35)">
      <defs>
       <path id="DejaVuSans-52" d="M 2841 2188 
Q 3044 2119 3236 1894 
Q 3428 1669 3622 1275 
L 4263 0 
L 3584 0 
L 2988 1197 
Q 2756 1666 2539 1819 
Q 2322 1972 1947 1972 
L 1259 1972 
L 1259 0 
L 628 0 
L 628 4666 
L 2053 4666 
Q 2853 4666 3247 4331 
Q 3641 3997 3641 3322 
Q 3641 2881 3436 2590 
Q 3231 2300 2841 2188 
z
M 1259 4147 
L 1259 2491 
L 2053 2491 
Q 2509 2491 2742 2702 
Q 2975 2913 2975 3322 
Q 2975 3731 2742 3939 
Q 2509 4147 2053 4147 
L 1259 4147 
z
" transform="scale(0.015625)"/>
       <path id="DejaVuSans-20" transform="scale(0.015625)"/>
      </defs>
      <use xlink:href="#DejaVuSans-52"/>
      <use xlink:href="#DejaVuSans-65" x="64.982422"/>
      <use xlink:href="#DejaVuSans-6c" x="126.505859"/>
      <use xlink:href="#DejaVuSans-61" x="154.289062"/>
      <use xlink:href="#DejaVuSans-74" x="215.568359"/>
      <use xlink:href="#DejaVuSans-69" x="254.777344"/>
      <use xlink:href="#DejaVuSans-76" x="282.560547"/>
      <use xlink:href="#DejaVuSans-65" x="341.740234"/>
      <use xlink:href="#DejaVuSans-20" x="403.263672"/>
      <use xlink:href="#DejaVuSans-65" x="435.050781"/>
      <use xlink:href="#DejaVuSans-78" x="494.824219"/>
      <use xlink:href="#DejaVuSans-65" x="550.878906"/>
      <use xlink:href="#DejaVuSans-63" x="612.402344"/>
      <use xlink:href="#DejaVuSans-75" x="667.382812"/>
      <use xlink:href="#DejaVuSans-74" x="730.761719"/>
      <use xlink:href="#DejaVuSans-69" x="769.970703"/>
      <use xlink:href="#DejaVuSans-6f" x="797.753906"/>
      <use xlink:href="#DejaVuSans-6e" x="858.935547"/>
      <use xlink:href="#DejaVuSans-20" x="922.314453"/>
      <use xlink:href="#DejaVuSans-74" x="954.101562"/>
      <use xlink:href="#DejaVuSans-69" x="993.310547"/>
      <use xlink:href="#DejaVuSans-6d" x="1021.09375"/>
      <use xlink:href="#DejaVuSans-65" x="1118.505859"/>
     </g>
     <!-- (O0=1) -->
     <g transform="translate(72.986875 342.917253) rotate(-90) scale(0.35 -0.35)">
      <defs>
       <path id="DejaVuSans-28" d="M 1984 4856 
Q 1566 4138 1362 3434 
Q 1159 2731 1159 2009 
Q 1159 1288 1364 580 
Q 1569 -128 1984 -844 
L 1484 -844 
Q 1016 -109 783 600 
Q 550 1309 550 2009 
Q 550 2706 781 3412 
Q 1013 4119 1484 4856 
L 1984 4856 
z
" transform="scale(0.015625)"/>
       <path id="DejaVuSans-4f" d="M 2522 4238 
Q 1834 4238 1429 3725 
Q 1025 3213 1025 2328 
Q 1025 1447 1429 934 
Q 1834 422 2522 422 
Q 3209 422 3611 934 
Q 4013 1447 4013 2328 
Q 4013 3213 3611 3725 
Q 3209 4238 2522 4238 
z
M 2522 4750 
Q 3503 4750 4090 4092 
Q 4678 3434 4678 2328 
Q 4678 1225 4090 567 
Q 3503 -91 2522 -91 
Q 1538 -91 948 565 
Q 359 1222 359 2328 
Q 359 3434 948 4092 
Q 1538 4750 2522 4750 
z
" transform="scale(0.015625)"/>
       <path id="DejaVuSans-3d" d="M 678 2906 
L 4684 2906 
L 4684 2381 
L 678 2381 
L 678 2906 
z
M 678 1631 
L 4684 1631 
L 4684 1100 
L 678 1100 
L 678 1631 
z
" transform="scale(0.015625)"/>
       <path id="DejaVuSans-29" d="M 513 4856 
L 1013 4856 
Q 1481 4119 1714 3412 
Q 1947 2706 1947 2009 
Q 1947 1309 1714 600 
Q 1481 -109 1013 -844 
L 513 -844 
Q 928 -128 1133 580 
Q 1338 1288 1338 2009 
Q 1338 2731 1133 3434 
Q 928 4138 513 4856 
z
" transform="scale(0.015625)"/>
      </defs>
      <use xlink:href="#DejaVuSans-28"/>
      <use xlink:href="#DejaVuSans-4f" x="39.013672"/>
      <use xlink:href="#DejaVuSans-30" x="117.724609"/>
      <use xlink:href="#DejaVuSans-3d" x="181.347656"/>
      <use xlink:href="#DejaVuSans-31" x="265.136719"/>
      <use xlink:href="#DejaVuSans-29" x="328.759766"/>
     </g>
    </g>
   </g>
   <g id="patch_3">
    <path d="M 131.023594 500.3128 
L 131.023594 56.7928 
" style="fill: none; stroke: #000000; stroke-width: 0.8; stroke-linejoin: miter; stroke-linecap: square"/>
   </g>
   <g id="patch_4">
    <path d="M 1805.023594 500.3128 
L 1805.023594 56.7928 
" style="fill: none; stroke: #000000; stroke-width: 0.8; stroke-linejoin: miter; stroke-linecap: square"/>
   </g>
   <g id="patch_5">
    <path d="M 131.023594 500.3128 
L 1805.023594 500.3128 
" style="fill: none; stroke: #000000; stroke-width: 0.8; stroke-linejoin: miter; stroke-linecap: square"/>
   </g>
   <g id="patch_6">
    <path d="M 131.023594 56.7928 
L 1805.023594 56.7928 
" style="fill: none; stroke: #000000; stroke-width: 0.8; stroke-linejoin: miter; stroke-linecap: square"/>
   </g>
   <g id="legend_1">
    <g id="patch_7">
     <path d="M 686.576328 36.196094 
L 736.576328 36.196094 
L 736.576328 18.696094 
L 686.576328 18.696094 
z
" style="fill: #b2182b; stroke: #000000; stroke-linejoin: miter"/>
    </g>
    <g id="text_28">
     <!-- O3 -->
     <g transform="translate(749.076328 36.196094) scale(0.25 -0.25)">
      <use xlink:href="#DejaVuSans-4f"/>
      <use xlink:href="#DejaVuSans-33" x="78.710938"/>
     </g>
    </g>
    <g id="patch_8">
     <path d="M 834.662266 36.196094 
L 884.662266 36.196094 
L 884.662266 18.696094 
L 834.662266 18.696094 
z
" style="fill: #2166ac; stroke: #000000; stroke-linejoin: miter"/>
    </g>
    <g id="text_29">
     <!-- AutoPhase -->
     <g transform="translate(897.162266 36.196094) scale(0.25 -0.25)">
      <defs>
       <path id="DejaVuSans-41" d="M 2188 4044 
L 1331 1722 
L 3047 1722 
L 2188 4044 
z
M 1831 4666 
L 2547 4666 
L 4325 0 
L 3669 0 
L 3244 1197 
L 1141 1197 
L 716 0 
L 50 0 
L 1831 4666 
z
" transform="scale(0.015625)"/>
       <path id="DejaVuSans-50" d="M 1259 4147 
L 1259 2394 
L 2053 2394 
Q 2494 2394 2734 2622 
Q 2975 2850 2975 3272 
Q 2975 3691 2734 3919 
Q 2494 4147 2053 4147 
L 1259 4147 
z
M 628 4666 
L 2053 4666 
Q 2838 4666 3239 4311 
Q 3641 3956 3641 3272 
Q 3641 2581 3239 2228 
Q 2838 1875 2053 1875 
L 1259 1875 
L 1259 0 
L 628 0 
L 628 4666 
z
" transform="scale(0.015625)"/>
      </defs>
      <use xlink:href="#DejaVuSans-41"/>
      <use xlink:href="#DejaVuSans-75" x="68.408203"/>
      <use xlink:href="#DejaVuSans-74" x="131.787109"/>
      <use xlink:href="#DejaVuSans-6f" x="170.996094"/>
      <use xlink:href="#DejaVuSans-50" x="232.177734"/>
      <use xlink:href="#DejaVuSans-68" x="292.480469"/>
      <use xlink:href="#DejaVuSans-61" x="355.859375"/>
      <use xlink:href="#DejaVuSans-73" x="417.138672"/>
      <use xlink:href="#DejaVuSans-65" x="469.238281"/>
     </g>
    </g>
    <g id="patch_9">
     <path d="M 1079.849766 36.196094 
L 1129.849766 36.196094 
L 1129.849766 18.696094 
L 1079.849766 18.696094 
z
" style="fill: #92c5de; stroke: #000000; stroke-linejoin: miter"/>
    </g>
    <g id="text_30">
     <!-- WasmRL -->
     <g transform="translate(1142.349766 36.196094) scale(0.25 -0.25)">
      <defs>
       <path id="DejaVuSans-57" d="M 213 4666 
L 850 4666 
L 1831 722 
L 2809 4666 
L 3519 4666 
L 4500 722 
L 5478 4666 
L 6119 4666 
L 4947 0 
L 4153 0 
L 3169 4050 
L 2175 0 
L 1381 0 
L 213 4666 
z
" transform="scale(0.015625)"/>
       <path id="DejaVuSans-4c" d="M 628 4666 
L 1259 4666 
L 1259 531 
L 3531 531 
L 3531 0 
L 628 0 
L 628 4666 
z
" transform="scale(0.015625)"/>
      </defs>
      <use xlink:href="#DejaVuSans-57"/>
      <use xlink:href="#DejaVuSans-61" x="92.501953"/>
      <use xlink:href="#DejaVuSans-73" x="153.78125"/>
      <use xlink:href="#DejaVuSans-6d" x="205.880859"/>
      <use xlink:href="#DejaVuSans-52" x="303.292969"/>
      <use xlink:href="#DejaVuSans-4c" x="372.775391"/>
     </g>
    </g>
   </g>
   <g id="patch_10">
    <path d="M 207.114503 500.3128 
L 222.64326 500.3128 
L 222.64326 221.324413 
L 207.114503 221.324413 
z
" clip-path="url(#pd299d8dade)" style="fill: #b2182b; stroke: #000000; stroke-linejoin: miter"/>
   </g>
   <g id="patch_11">
    <path d="M 284.758288 500.3128 
L 300.287045 500.3128 
L 300.287045 174.509905 
L 284.758288 174.509905 
z
" clip-path="url(#pd299d8dade)" style="fill: #b2182b; stroke: #000000; stroke-linejoin: miter"/>
   </g>
   <g id="patch_12">
    <path d="M 362.402072 500.3128 
L 377.930829 500.3128 
L 377.930829 278.5528 
L 362.402072 278.5528 
z
" clip-path="url(#pd299d8dade)" style="fill: #b2182b; stroke: #000000; stroke-linejoin: miter"/>
   </g>
   <g id="patch_13">
    <path d="M 440.045857 500.3128 
L 455.574614 500.3128 
L 455.574614 253.416276 
L 440.045857 253.416276 
z
" clip-path="url(#pd299d8dade)" style="fill: #b2182b; stroke: #000000; stroke-linejoin: miter"/>
   </g>
   <g id="patch_14">
    <path d="M 517.689642 500.3128 
L 533.218399 500.3128 
L 533.218399 237.726691 
L 517.689642 237.726691 
z
" clip-path="url(#pd299d8dade)" style="fill: #b2182b; stroke: #000000; stroke-linejoin: miter"/>
   </g>
   <g id="patch_15">
    <path d="M 595.333427 500.3128 
L 610.862184 500.3128 
L 610.862184 190.636114 
L 595.333427 190.636114 
z
" clip-path="url(#pd299d8dade)" style="fill: #b2182b; stroke: #000000; stroke-linejoin: miter"/>
   </g>
   <g id="patch_16">
    <path d="M 672.977212 500.3128 
L 688.505969 500.3128 
L 688.505969 220.985306 
L 672.977212 220.985306 
z
" clip-path="url(#pd299d8dade)" style="fill: #b2182b; stroke: #000000; stroke-linejoin: miter"/>
   </g>
   <g id="patch_17">
    <path d="M 750.620996 500.3128 
L 766.149753 500.3128 
L 766.149753 151.067582 
L 750.620996 151.067582 
z
" clip-path="url(#pd299d8dade)" style="fill: #b2182b; stroke: #000000; stroke-linejoin: miter"/>
   </g>
   <g id="patch_18">
    <path d="M 828.264781 500.3128 
L 843.793538 500.3128 
L 843.793538 252.907086 
L 828.264781 252.907086 
z
" clip-path="url(#pd299d8dade)" style="fill: #b2182b; stroke: #000000; stroke-linejoin: miter"/>
   </g>
   <g id="patch_19">
    <path d="M 905.908566 500.3128 
L 921.437323 500.3128 
L 921.437323 151.158757 
L 905.908566 151.158757 
z
" clip-path="url(#pd299d8dade)" style="fill: #b2182b; stroke: #000000; stroke-linejoin: miter"/>
   </g>
   <g id="patch_20">
    <path d="M 983.552351 500.3128 
L 999.081108 500.3128 
L 999.081108 225.955877 
L 983.552351 225.955877 
z
" clip-path="url(#pd299d8dade)" style="fill: #b2182b; stroke: #000000; stroke-linejoin: miter"/>
   </g>
   <g id="patch_21">
    <path d="M 1061.196135 500.3128 
L 1076.724892 500.3128 
L 1076.724892 162.527968 
L 1061.196135 162.527968 
z
" clip-path="url(#pd299d8dade)" style="fill: #b2182b; stroke: #000000; stroke-linejoin: miter"/>
   </g>
   <g id="patch_22">
    <path d="M 1138.83992 500.3128 
L 1154.368677 500.3128 
L 1154.368677 301.61584 
L 1138.83992 301.61584 
z
" clip-path="url(#pd299d8dade)" style="fill: #b2182b; stroke: #000000; stroke-linejoin: miter"/>
   </g>
   <g id="patch_23">
    <path d="M 1216.483705 500.3128 
L 1232.012462 500.3128 
L 1232.012462 251.9416 
L 1216.483705 251.9416 
z
" clip-path="url(#pd299d8dade)" style="fill: #b2182b; stroke: #000000; stroke-linejoin: miter"/>
   </g>
   <g id="patch_24">
    <path d="M 1294.12749 500.3128 
L 1309.656247 500.3128 
L 1309.656247 203.100779 
L 1294.12749 203.100779 
z
" clip-path="url(#pd299d8dade)" style="fill: #b2182b; stroke: #000000; stroke-linejoin: miter"/>
   </g>
   <g id="patch_25">
    <path d="M 1371.771275 500.3128 
L 1387.300032 500.3128 
L 1387.300032 210.190695 
L 1371.771275 210.190695 
z
" clip-path="url(#pd299d8dade)" style="fill: #b2182b; stroke: #000000; stroke-linejoin: miter"/>
   </g>
   <g id="patch_26">
    <path d="M 1449.415059 500.3128 
L 1464.943816 500.3128 
L 1464.943816 144.494495 
L 1449.415059 144.494495 
z
" clip-path="url(#pd299d8dade)" style="fill: #b2182b; stroke: #000000; stroke-linejoin: miter"/>
   </g>
   <g id="patch_27">
    <path d="M 1527.058844 500.3128 
L 1542.587601 500.3128 
L 1542.587601 268.721076 
L 1527.058844 268.721076 
z
" clip-path="url(#pd299d8dade)" style="fill: #b2182b; stroke: #000000; stroke-linejoin: miter"/>
   </g>
   <g id="patch_28">
    <path d="M 1604.702629 500.3128 
L 1620.231386 500.3128 
L 1620.231386 184.838323 
L 1604.702629 184.838323 
z
" clip-path="url(#pd299d8dade)" style="fill: #b2182b; stroke: #000000; stroke-linejoin: miter"/>
   </g>
   <g id="patch_29">
    <path d="M 1682.346414 500.3128 
L 1697.875171 500.3128 
L 1697.875171 201.294478 
L 1682.346414 201.294478 
z
" clip-path="url(#pd299d8dade)" style="fill: #b2182b; stroke: #000000; stroke-linejoin: miter"/>
   </g>
   <g id="patch_30">
    <path d="M 222.64326 500.3128 
L 238.172017 500.3128 
L 238.172017 269.968542 
L 222.64326 269.968542 
z
" clip-path="url(#pd299d8dade)" style="fill: #2166ac; stroke: #000000; stroke-linejoin: miter"/>
   </g>
   <g id="patch_31">
    <path d="M 300.287045 500.3128 
L 315.815802 500.3128 
L 315.815802 254.177036 
L 300.287045 254.177036 
z
" clip-path="url(#pd299d8dade)" style="fill: #2166ac; stroke: #000000; stroke-linejoin: miter"/>
   </g>
   <g id="patch_32">
    <path d="M 377.930829 500.3128 
L 393.459586 500.3128 
L 393.459586 330.172565 
L 377.930829 330.172565 
z
" clip-path="url(#pd299d8dade)" style="fill: #2166ac; stroke: #000000; stroke-linejoin: miter"/>
   </g>
   <g id="patch_33">
    <path d="M 455.574614 500.3128 
L 471.103371 500.3128 
L 471.103371 264.588065 
L 455.574614 264.588065 
z
" clip-path="url(#pd299d8dade)" style="fill: #2166ac; stroke: #000000; stroke-linejoin: miter"/>
   </g>
   <g id="patch_34">
    <path d="M 533.218399 500.3128 
L 548.747156 500.3128 
L 548.747156 279.480666 
L 533.218399 279.480666 
z
" clip-path="url(#pd299d8dade)" style="fill: #2166ac; stroke: #000000; stroke-linejoin: miter"/>
   </g>
   <g id="patch_35">
    <path d="M 610.862184 500.3128 
L 626.390941 500.3128 
L 626.390941 219.504279 
L 610.862184 219.504279 
z
" clip-path="url(#pd299d8dade)" style="fill: #2166ac; stroke: #000000; stroke-linejoin: miter"/>
   </g>
   <g id="patch_36">
    <path d="M 688.505969 500.3128 
L 704.034725 500.3128 
L 704.034725 363.151987 
L 688.505969 363.151987 
z
" clip-path="url(#pd299d8dade)" style="fill: #2166ac; stroke: #000000; stroke-linejoin: miter"/>
   </g>
   <g id="patch_37">
    <path d="M 766.149753 500.3128 
L 781.67851 500.3128 
L 781.67851 211.060626 
L 766.149753 211.060626 
z
" clip-path="url(#pd299d8dade)" style="fill: #2166ac; stroke: #000000; stroke-linejoin: miter"/>
   </g>
   <g id="patch_38">
    <path d="M 843.793538 500.3128 
L 859.322295 500.3128 
L 859.322295 301.181371 
L 843.793538 301.181371 
z
" clip-path="url(#pd299d8dade)" style="fill: #2166ac; stroke: #000000; stroke-linejoin: miter"/>
   </g>
   <g id="patch_39">
    <path d="M 921.437323 500.3128 
L 936.96608 500.3128 
L 936.96608 279.732374 
L 921.437323 279.732374 
z
" clip-path="url(#pd299d8dade)" style="fill: #2166ac; stroke: #000000; stroke-linejoin: miter"/>
   </g>
   <g id="patch_40">
    <path d="M 999.081108 500.3128 
L 1014.609865 500.3128 
L 1014.609865 236.617415 
L 999.081108 236.617415 
z
" clip-path="url(#pd299d8dade)" style="fill: #2166ac; stroke: #000000; stroke-linejoin: miter"/>
   </g>
   <g id="patch_41">
    <path d="M 1076.724892 500.3128 
L 1092.253649 500.3128 
L 1092.253649 336.387808 
L 1076.724892 336.387808 
z
" clip-path="url(#pd299d8dade)" style="fill: #2166ac; stroke: #000000; stroke-linejoin: miter"/>
   </g>
   <g id="patch_42">
    <path d="M 1154.368677 500.3128 
L 1169.897434 500.3128 
L 1169.897434 301.61584 
L 1154.368677 301.61584 
z
" clip-path="url(#pd299d8dade)" style="fill: #2166ac; stroke: #000000; stroke-linejoin: miter"/>
   </g>
   <g id="patch_43">
    <path d="M 1232.012462 500.3128 
L 1247.541219 500.3128 
L 1247.541219 279.3592 
L 1232.012462 279.3592 
z
" clip-path="url(#pd299d8dade)" style="fill: #2166ac; stroke: #000000; stroke-linejoin: miter"/>
   </g>
   <g id="patch_44">
    <path d="M 1309.656247 500.3128 
L 1325.185004 500.3128 
L 1325.185004 265.913629 
L 1309.656247 265.913629 
z
" clip-path="url(#pd299d8dade)" style="fill: #2166ac; stroke: #000000; stroke-linejoin: miter"/>
   </g>
   <g id="patch_45">
    <path d="M 1387.300032 500.3128 
L 1402.828789 500.3128 
L 1402.828789 260.211748 
L 1387.300032 260.211748 
z
" clip-path="url(#pd299d8dade)" style="fill: #2166ac; stroke: #000000; stroke-linejoin: miter"/>
   </g>
   <g id="patch_46">
    <path d="M 1464.943816 500.3128 
L 1480.472573 500.3128 
L 1480.472573 247.230766 
L 1464.943816 247.230766 
z
" clip-path="url(#pd299d8dade)" style="fill: #2166ac; stroke: #000000; stroke-linejoin: miter"/>
   </g>
   <g id="patch_47">
    <path d="M 1542.587601 500.3128 
L 1558.116358 500.3128 
L 1558.116358 377.416248 
L 1542.587601 377.416248 
z
" clip-path="url(#pd299d8dade)" style="fill: #2166ac; stroke: #000000; stroke-linejoin: miter"/>
   </g>
   <g id="patch_48">
    <path d="M 1620.231386 500.3128 
L 1635.760143 500.3128 
L 1635.760143 253.500415 
L 1620.231386 253.500415 
z
" clip-path="url(#pd299d8dade)" style="fill: #2166ac; stroke: #000000; stroke-linejoin: miter"/>
   </g>
   <g id="patch_49">
    <path d="M 1697.875171 500.3128 
L 1713.403928 500.3128 
L 1713.403928 308.597703 
L 1697.875171 308.597703 
z
" clip-path="url(#pd299d8dade)" style="fill: #2166ac; stroke: #000000; stroke-linejoin: miter"/>
   </g>
   <g id="patch_50">
    <path d="M 238.172017 500.3128 
L 253.700774 500.3128 
L 253.700774 287.137058 
L 238.172017 287.137058 
z
" clip-path="url(#pd299d8dade)" style="fill: #92c5de; stroke: #000000; stroke-linejoin: miter"/>
   </g>
   <g id="patch_51">
    <path d="M 315.815802 500.3128 
L 331.344558 500.3128 
L 331.344558 251.798913 
L 315.815802 251.798913 
z
" clip-path="url(#pd299d8dade)" style="fill: #92c5de; stroke: #000000; stroke-linejoin: miter"/>
   </g>
   <g id="patch_52">
    <path d="M 393.459586 500.3128 
L 408.988343 500.3128 
L 408.988343 357.7528 
L 393.459586 357.7528 
z
" clip-path="url(#pd299d8dade)" style="fill: #92c5de; stroke: #000000; stroke-linejoin: miter"/>
   </g>
   <g id="patch_53">
    <path d="M 471.103371 500.3128 
L 486.632128 500.3128 
L 486.632128 307.04086 
L 471.103371 307.04086 
z
" clip-path="url(#pd299d8dade)" style="fill: #92c5de; stroke: #000000; stroke-linejoin: miter"/>
   </g>
   <g id="patch_54">
    <path d="M 548.747156 500.3128 
L 564.275913 500.3128 
L 564.275913 361.132884 
L 548.747156 361.132884 
z
" clip-path="url(#pd299d8dade)" style="fill: #92c5de; stroke: #000000; stroke-linejoin: miter"/>
   </g>
   <g id="patch_55">
    <path d="M 626.390941 500.3128 
L 641.919698 500.3128 
L 641.919698 202.445818 
L 626.390941 202.445818 
z
" clip-path="url(#pd299d8dade)" style="fill: #92c5de; stroke: #000000; stroke-linejoin: miter"/>
   </g>
   <g id="patch_56">
    <path d="M 704.034725 500.3128 
L 719.563482 500.3128 
L 719.563482 388.68192 
L 704.034725 388.68192 
z
" clip-path="url(#pd299d8dade)" style="fill: #92c5de; stroke: #000000; stroke-linejoin: miter"/>
   </g>
   <g id="patch_57">
    <path d="M 781.67851 500.3128 
L 797.207267 500.3128 
L 797.207267 226.058887 
L 781.67851 226.058887 
z
" clip-path="url(#pd299d8dade)" style="fill: #92c5de; stroke: #000000; stroke-linejoin: miter"/>
   </g>
   <g id="patch_58">
    <path d="M 859.322295 500.3128 
L 874.851052 500.3128 
L 874.851052 328.335657 
L 859.322295 328.335657 
z
" clip-path="url(#pd299d8dade)" style="fill: #92c5de; stroke: #000000; stroke-linejoin: miter"/>
   </g>
   <g id="patch_59">
    <path d="M 936.96608 500.3128 
L 952.494837 500.3128 
L 952.494837 315.119609 
L 936.96608 315.119609 
z
" clip-path="url(#pd299d8dade)" style="fill: #92c5de; stroke: #000000; stroke-linejoin: miter"/>
   </g>
   <g id="patch_60">
    <path d="M 1014.609865 500.3128 
L 1030.138622 500.3128 
L 1030.138622 419.640492 
L 1014.609865 419.640492 
z
" clip-path="url(#pd299d8dade)" style="fill: #92c5de; stroke: #000000; stroke-linejoin: miter"/>
   </g>
   <g id="patch_61">
    <path d="M 1092.253649 500.3128 
L 1107.782406 500.3128 
L 1107.782406 408.770272 
L 1092.253649 408.770272 
z
" clip-path="url(#pd299d8dade)" style="fill: #92c5de; stroke: #000000; stroke-linejoin: miter"/>
   </g>
   <g id="patch_62">
    <path d="M 1169.897434 500.3128 
L 1185.426191 500.3128 
L 1185.426191 305.164 
L 1169.897434 305.164 
z
" clip-path="url(#pd299d8dade)" style="fill: #92c5de; stroke: #000000; stroke-linejoin: miter"/>
   </g>
   <g id="patch_63">
    <path d="M 1247.541219 500.3128 
L 1263.069976 500.3128 
L 1263.069976 280.972 
L 1247.541219 280.972 
z
" clip-path="url(#pd299d8dade)" style="fill: #92c5de; stroke: #000000; stroke-linejoin: miter"/>
   </g>
   <g id="patch_64">
    <path d="M 1325.185004 500.3128 
L 1340.713761 500.3128 
L 1340.713761 406.859536 
L 1325.185004 406.859536 
z
" clip-path="url(#pd299d8dade)" style="fill: #92c5de; stroke: #000000; stroke-linejoin: miter"/>
   </g>
   <g id="patch_65">
    <path d="M 1402.828789 500.3128 
L 1418.357546 500.3128 
L 1418.357546 331.3528 
L 1402.828789 331.3528 
z
" clip-path="url(#pd299d8dade)" style="fill: #92c5de; stroke: #000000; stroke-linejoin: miter"/>
   </g>
   <g id="patch_66">
    <path d="M 1480.472573 500.3128 
L 1496.00133 500.3128 
L 1496.00133 254.748054 
L 1480.472573 254.748054 
z
" clip-path="url(#pd299d8dade)" style="fill: #92c5de; stroke: #000000; stroke-linejoin: miter"/>
   </g>
   <g id="patch_67">
    <path d="M 1558.116358 500.3128 
L 1573.645115 500.3128 
L 1573.645115 388.886593 
L 1558.116358 388.886593 
z
" clip-path="url(#pd299d8dade)" style="fill: #92c5de; stroke: #000000; stroke-linejoin: miter"/>
   </g>
   <g id="patch_68">
    <path d="M 1635.760143 500.3128 
L 1651.2889 500.3128 
L 1651.2889 287.831461 
L 1635.760143 287.831461 
z
" clip-path="url(#pd299d8dade)" style="fill: #92c5de; stroke: #000000; stroke-linejoin: miter"/>
   </g>
   <g id="patch_69">
    <path d="M 1713.403928 500.3128 
L 1728.932685 500.3128 
L 1728.932685 317.181961 
L 1713.403928 317.181961 
z
" clip-path="url(#pd299d8dade)" style="fill: #92c5de; stroke: #000000; stroke-linejoin: miter"/>
   </g>
  </g>
 </g>
 <defs>
  <clipPath id="pd299d8dade">
   <rect x="131.023594" y="56.7928" width="1674" height="443.52"/>
  </clipPath>
 </defs>
</svg>
